:SAMPLES-PER-SECOND 30
:FULLY-SPECIFIED
:DEGREES
343
root  -9.66833 34.8741 -17.2587 -170.929 1.70659 179.777
RightUpLeg  -5.55202 -13.4762 4.00394
RightLeg  -0.523883 -0.383507 0.0260519
RightFoot  4.5707 0.0102121 0.111501
RightToes  -17.7722 -0.0693078 -0.156309
Spine  -3.04827 0.879498 -1.40832
Spine1  -6.11797 1.72782 -2.15312
HEad  -65.9419 -4.01856 11.7879
LeftShoulder1  -1.94126e-019 -3.10601e-018 -2.51263e-017
LeftArm  -8.55245 24.5469 -78.4625
LeftForeArm  33.7393 -15.4479 -2.66675
LeftHand  -0.377529 -1.07692 6.91689
RightShoulder  -4.96962e-017 0 -2.36833e-017
RightArm  -82.5849 19.289 11.4968
RightForeArm  164.118 42.3741 170.303
RightHand  -0.186631 -2.3103 -6.81128
LeftUpLeg  -5.27253 -3.46494 -2.72787
LeftLeg  -0.10992 13.7286 -0.897613
LeftFoot  5.24267 -0.0402328 1.43108
LeftToes  -11.1518 1.48347e-006 1.01831e-007
344
root  -9.67047 34.8744 -17.2598 -170.933 1.69138 179.779
RightUpLeg  -5.50295 -13.5062 4.00591
RightLeg  -0.620704 -0.371796 0.0268437
RightFoot  4.64845 0.0100009 0.113045
RightToes  -17.7036 -0.0691531 -0.155642
Spine  -3.04893 0.871748 -1.39185
Spine1  -6.1188 1.71251 -2.1218
HEad  -66.0277 -4.09039 11.7649
LeftShoulder1  -1.94126e-019 -3.10601e-018 -2.51263e-017
LeftArm  -8.53652 24.5816 -78.8142
LeftForeArm  33.509 -15.3606 -2.65249
LeftHand  -0.38432 -1.02512 7.0917
RightShoulder  -4.96962e-017 0 -2.36833e-017
RightArm  -82.7176 19.2725 11.517
RightForeArm  164.423 42.37 170.318
RightHand  -0.186602 -2.30259 -6.83257
LeftUpLeg  -5.27048 -3.42969 -2.73588
LeftLeg  -0.109747 13.6912 -0.892414
LeftFoot  5.23862 -0.0395448 1.42912
LeftToes  -11.1291 1.48347e-006 1.01831e-007
345
root  -9.67275 34.8747 -17.2604 -170.931 1.7195 179.79
RightUpLeg  -5.50353 -13.4687 4.01528
RightLeg  -0.629387 -0.404502 0.0340607
RightFoot  4.66772 0.00978536 0.114621
RightToes  -17.655 -0.0690331 -0.155038
Spine  -3.04833 0.875794 -1.3768
Spine1  -6.11735 1.71568 -2.09297
HEad  -66.1019 -4.11314 11.7421
LeftShoulder1  -1.94126e-019 -3.10601e-018 -2.51263e-017
LeftArm  -8.63902 24.6298 -79.0582
LeftForeArm  33.2571 -15.3317 -2.64669
LeftHand  -0.38533 -1.02983 7.1052
RightShoulder  -4.96962e-017 0 -2.36833e-017
RightArm  -82.8304 19.2923 11.5598
RightForeArm  164.171 42.3597 170.306
RightHand  -0.185609 -2.40591 -6.91187
LeftUpLeg  -5.26949 -3.41671 -2.73222
LeftLeg  -0.111596 13.721 -0.895957
LeftFoot  5.23905 -0.0389589 1.42719
LeftToes  -11.1453 1.48347e-006 1.01831e-007
346
root  -9.67201 34.8752 -17.2649 -170.908 1.79018 179.806
RightUpLeg  -5.5257 -13.4654 4.03537
RightLeg  -0.632478 -0.333596 0.0249735
RightFoot  4.67545 0.0097034 0.114264
RightToes  -17.5904 -0.0689434 -0.154505
Spine  -3.05776 0.874105 -1.36324
Spine1  -6.13595 1.72203 -2.06752
HEad  -66.1054 -4.08246 11.8062
LeftShoulder1  -1.94126e-019 -3.10601e-018 -2.51263e-017
LeftArm  -8.87903 24.7692 -79.3612
LeftForeArm  33.0353 -15.3448 -2.64498
LeftHand  -0.368902 -0.937835 6.89844
RightShoulder  -4.96962e-017 0 -2.36833e-017
RightArm  -82.9149 19.3929 11.783
RightForeArm  164.178 42.3025 170.324
RightHand  -0.184555 -2.44876 -6.98069
LeftUpLeg  -5.28122 -3.3741 -2.72199
LeftLeg  -0.113204 13.7465 -0.898885
LeftFoot  5.22844 -0.0385147 1.42585
LeftToes  -11.0854 1.48347e-006 1.01831e-007
347
root  -9.67411 34.8756 -17.2611 -170.912 1.81505 179.823
RightUpLeg  -5.5255 -13.3731 4.04379
RightLeg  -0.633771 -0.395268 0.0296266
RightFoot  4.69204 0.00993648 0.109386
RightToes  -17.6104 -0.0688798 -0.154048
Spine  -3.05551 0.86974 -1.35717
Spine1  -6.13164 1.71947 -2.05874
HEad  -65.9046 -4.10498 11.8064
LeftShoulder1  -1.94126e-019 -3.10601e-018 -2.51263e-017
LeftArm  -8.93443 24.8596 -79.55
LeftForeArm  33.036 -15.3519 -2.64122
LeftHand  -0.369047 -0.776432 7.06787
RightShoulder  -4.96962e-017 0 -2.36833e-017
RightArm  -82.9195 19.4339 11.9988
RightForeArm  164.26 42.2142 170.357
RightHand  -0.186685 -2.41544 -6.88799
LeftUpLeg  -5.28129 -3.36961 -2.70737
LeftLeg  -0.114393 13.7623 -0.900652
LeftFoot  5.23341 -0.0382517 1.42563
LeftToes  -11.1716 1.48347e-006 1.01831e-007
348
root  -9.67941 34.8761 -17.2487 -170.931 1.83624 179.831
RightUpLeg  -5.52644 -13.2341 4.03846
RightLeg  -0.633669 -0.510806 0.0383435
RightFoot  4.71722 0.0104632 0.100297
RightToes  -17.6068 -0.0688384 -0.153673
Spine  -3.03548 0.865573 -1.34639
Spine1  -6.09169 1.70568 -2.04076
HEad  -65.8362 -4.13047 11.8004
LeftShoulder1  -1.94126e-019 -3.10601e-018 -2.51263e-017
LeftArm  -8.8418 24.9186 -79.7228
LeftForeArm  33.0368 -15.3248 -2.63534
LeftHand  -0.368144 -0.763959 7.03292
RightShoulder  -4.96962e-017 0 -2.36833e-017
RightArm  -82.8931 19.5456 12.2198
RightForeArm  164.27 42.0918 170.396
RightHand  -0.186488 -2.44225 -6.91035
LeftUpLeg  -5.27867 -3.23303 -2.71404
LeftLeg  -0.112107 13.672 -0.888573
LeftFoot  5.27575 -0.0382095 1.42708
LeftToes  -11.0445 1.48347e-006 1.01831e-007
349
root  -9.69031 34.8765 -17.2232 -170.982 1.83983 179.84
RightUpLeg  -5.51467 -13.0759 4.02977
RightLeg  -0.632689 -0.695295 0.0522622
RightFoot  4.74575 0.0113523 0.0860201
RightToes  -17.5356 -0.0688145 -0.153386
Spine  -3.00451 0.86448 -1.33102
Spine1  -6.03022 1.70056 -2.01192
HEad  -65.7678 -4.17484 11.734
LeftShoulder1  -1.94126e-019 -3.10601e-018 -2.51263e-017
LeftArm  -8.89563 24.9193 -79.8588
LeftForeArm  32.8065 -15.2065 -2.62015
LeftHand  -0.367887 -0.873586 6.94487
RightShoulder  -4.96962e-017 0 -2.36833e-017
RightArm  -82.6821 19.7236 12.4489
RightForeArm  164.401 41.9814 170.438
RightHand  -0.186127 -2.402 -6.92768
LeftUpLeg  -5.2753 -3.18305 -2.72432
LeftLeg  -0.110859 13.6183 -0.881841
LeftFoot  5.28901 -0.0384276 1.43075
LeftToes  -11.1375 1.48347e-006 1.01831e-007
350
root  -9.69826 34.8768 -17.2003 -171.059 1.81822 179.841
RightUpLeg  -5.47408 -13.0698 4.01268
RightLeg  -0.630943 -0.733876 0.0551729
RightFoot  4.7634 0.0114211 0.0834588
RightToes  -17.5389 -0.0688042 -0.153193
Spine  -2.97344 0.870115 -1.32005
Spine1  -5.96885 1.71469 -1.98432
HEad  -65.5774 -4.19999 11.7172
LeftShoulder1  -1.94126e-019 -3.10601e-018 -2.51263e-017
LeftArm  -9.2653 24.8599 -79.9616
LeftForeArm  32.6598 -15.0172 -2.5917
LeftHand  -0.367298 -0.845636 6.96263
RightShoulder  -4.96962e-017 0 -2.36833e-017
RightArm  -82.353 19.8774 12.6402
RightForeArm  164.767 41.9306 170.476
RightHand  -0.185817 -2.36563 -6.94279
LeftUpLeg  -5.23838 -3.21767 -2.73517
LeftLeg  -0.111647 13.6337 -0.884949
LeftFoot  5.32158 -0.0391873 1.44093
LeftToes  -11.1771 1.48347e-006 1.01831e-007
